<?xml version="1.0" encoding="utf-8"?>
<!-- Generator: Adobe Illustrator 16.0.0, SVG Export Plug-In . SVG Version: 6.00 Build 0)  -->
<!DOCTYPE svg PUBLIC "-//W3C//DTD SVG 1.1//EN" "http://www.w3.org/Graphics/SVG/1.1/DTD/svg11.dtd">
<svg version="1.1" id="Layer_1" xmlns="http://www.w3.org/2000/svg" xmlns:xlink="http://www.w3.org/1999/xlink" x="0px" y="0px"
	 width="12px" height="28px" viewBox="0 0 12 28" enable-background="new 0 0 12 28" xml:space="preserve">
<g>
	<path fill="#31485E" d="M6,2c1.104,0,2,0.895,2,2v14.555c1.189,0.693,2,1.969,2,3.445c0,2.211-1.791,4-4,4c-2.209,0-4-1.789-4-4
		c0-1.477,0.81-2.752,2-3.445V4C4,2.895,4.895,2,6,2 M6,0C3.794,0,2,1.795,2,4v13.549C0.745,18.678,0,20.295,0,22
		c0,3.309,2.691,6,6,6c3.309,0,6-2.691,6-6c0-1.705-0.746-3.322-2-4.451V4C10,1.795,8.206,0,6,0L6,0z"/>
	<path opacity="0.4" fill="#31485E" d="M4,9v9.555C2.81,19.249,2,20.524,2,22c0,2.211,1.791,4,4,4c2.209,0,4-1.789,4-4
		c0-1.477-0.811-2.752-2-3.445V9"/>
	<rect x="3" y="14" fill="#31485E" width="2" height="1"/>
	<rect x="3" y="8" fill="#31485E" width="2" height="1"/>
	<rect x="3" y="11" fill="#31485E" width="3" height="1"/>
	<rect x="3" y="5" fill="#31485E" width="3" height="1"/>
</g>
</svg>
